<?xml version="1.0" standalone="no"?>
<!DOCTYPE svg PUBLIC "-//W3C//DTD SVG 20010904//EN"
 "http://www.w3.org/TR/2001/REC-SVG-20010904/DTD/svg10.dtd">
<svg version="1.0" xmlns="http://www.w3.org/2000/svg"
 width="1024.000000pt" height="1024.000000pt" viewBox="0 0 1024.000000 1024.000000"
 preserveAspectRatio="xMidYMid meet">

<g transform="translate(0.000000,1024.000000) scale(0.100000,-0.100000)"
fill="#000000" stroke="none">
<path d="M4835 7924 c-539 -69 -1037 -346 -1402 -779 -720 -854 -716 -2089 10
-2950 277 -330 688 -591 1100 -700 225 -60 406 -80 650 -72 272 9 485 51 717
144 312 124 543 275 770 503 267 268 432 536 550 888 120 361 147 752 79 1134
-127 715 -600 1330 -1266 1644 -198 94 -424 160 -646 189 -145 18 -411 18
-562 -1z m660 -53 c444 -85 806 -274 1140 -592 309 -296 537 -709 620 -1124
40 -204 48 -297 42 -542 -5 -256 -21 -367 -83 -570 -119 -394 -305 -699 -600
-983 -168 -162 -332 -274 -559 -385 -833 -407 -1837 -227 -2491 446 -330 341
-547 790 -609 1262 -19 149 -19 427 -1 577 65 515 290 959 677 1335 181 176
321 276 540 385 221 111 408 165 744 214 17 2 129 3 250 1 173 -2 244 -8 330
-24z"/>
<path d="M3665 6908 c-3 -7 -4 -557 -3 -1223 l3 -1210 520 -3 c652 -4 730 4
900 88 179 88 294 235 326 415 16 96 7 255 -20 335 -68 199 -254 346 -501 395
-36 7 -58 15 -50 17 8 3 40 13 70 23 264 85 403 274 404 550 1 318 -173 516
-524 597 -90 21 -123 22 -608 26 -415 2 -513 1 -517 -10z m919 -62 c90 -23
162 -64 221 -127 89 -96 123 -194 132 -374 13 -276 -71 -467 -242 -547 -114
-53 -148 -58 -412 -58 l-243 0 0 558 c0 307 3 562 8 567 13 13 471 -3 536 -19z
m52 -1186 c210 -53 337 -174 390 -370 23 -89 23 -280 -1 -375 -50 -199 -153
-312 -335 -370 -44 -14 -104 -19 -308 -22 -139 -3 -273 -2 -297 2 l-45 6 0
568 c0 312 3 571 7 574 3 4 120 7 258 7 219 0 262 -3 331 -20z"/>
<path d="M5274 6905 c-3 -8 -3 -18 0 -23 3 -5 81 -12 173 -15 247 -8 338 -40
441 -152 91 -99 130 -212 139 -400 14 -313 -102 -507 -342 -569 -64 -16 -245
-36 -332 -36 -28 0 -55 -5 -58 -10 -3 -6 7 -22 23 -38 16 -15 104 -142 194
-282 218 -337 227 -352 413 -649 l160 -256 209 0 c136 0 211 4 213 10 4 14 2
17 -495 800 -163 256 -232 368 -229 371 1 2 44 12 94 23 223 48 402 172 475
327 104 223 65 526 -91 696 -102 111 -226 171 -423 203 -131 21 -556 22 -564
0z"/>
<path d="M6361 2919 c-53 -10 -115 -46 -158 -91 -77 -80 -105 -230 -63 -343
32 -85 116 -168 196 -191 71 -20 161 -15 226 14 49 21 128 87 128 106 0 6 -15
21 -32 33 l-32 22 -34 -36 c-45 -45 -91 -64 -156 -64 -64 0 -102 14 -144 54
-56 54 -77 102 -76 182 1 103 38 167 124 211 74 37 200 15 254 -45 24 -27 39
-26 72 2 l26 23 -27 32 c-57 68 -202 112 -304 91z"/>
<path d="M2787 2913 c-4 -3 -7 -143 -7 -309 l0 -304 24 -6 c14 -3 34 -3 45 1
20 6 21 14 21 130 l0 124 148 3 147 3 0 40 0 40 -147 3 -148 3 0 94 0 95 173
2 172 3 3 43 3 42 -214 0 c-117 0 -217 -3 -220 -7z"/>
<path d="M3487 2913 c-9 -8 -7 -477 2 -558 6 -64 17 -73 67 -61 l24 6 0 294
c0 162 -3 301 -6 310 -6 16 -73 23 -87 9z"/>
<path d="M3902 2608 l3 -313 40 0 40 0 5 223 5 224 21 -24 c12 -13 88 -114
169 -226 l147 -203 42 3 41 3 0 310 0 310 -40 0 -40 0 -3 -222 c-1 -123 -6
-223 -10 -223 -9 0 -8 -1 -191 250 -74 102 -139 188 -145 192 -6 4 -28 8 -49
8 l-37 0 2 -312z"/>
<path d="M4670 2875 l0 -45 100 0 100 0 2 -267 3 -268 37 -3 c58 -5 61 7 58
272 -2 127 -2 239 -1 248 1 15 15 18 108 20 117 3 123 7 109 64 l-6 24 -255 0
-255 0 0 -45z"/>
<path d="M5440 2605 l0 -315 218 2 217 3 0 40 0 40 -172 3 -173 2 0 84 c0 67
3 85 16 90 9 3 74 6 145 6 l129 0 0 40 0 39 -142 3 -143 3 -3 93 -3 92 176 0
176 0 -3 43 -3 42 -217 3 -218 2 0 -315z"/>
<path d="M6965 2908 c-3 -7 -4 -148 -3 -313 l3 -300 40 0 40 0 3 128 3 127
159 0 159 0 3 -127 3 -128 40 0 40 0 3 313 2 313 -42 -3 -43 -3 -3 -137 -3
-138 -159 0 -159 0 -3 138 -3 137 -38 3 c-24 2 -39 -1 -42 -10z"/>
</g>
</svg>
